<svg xmlns="http://www.w3.org/2000/svg" height="1200" width="1600" version="1.1" xmlns:xlink="http://www.w3.org/1999/xlink" xmlns:svgjs="http://svgjs.com/svgjs"><rect fill="#effaff" width="1600" height="1200"></rect><g><path d="M1434.51 282.88C1422.51 261.07 1407.48 241.53 1389.42 225.43 1328.97 171.65 1247.99 167.09 1174.19 168.23 1087.94 169.88 1002.47 180.4 918.35 201.71 805.63 230.12 699.08 279.96 582.32 287.32 517.38 291.38 452.44 284.02 387.61 287.83 322.67 291.63 255.82 308.37 205.35 354.28 172.15 384.47 147.36 426.32 135.59 472.36 117.64 542.62 129.42 619.22 156.34 685.68 199.29 792.34 271.19 898.24 364.84 953.29 475.21 1017.84 600.15 1044.6 722.86 1060.2 813.15 1071.74 904.67 1077.45 994.85 1064.51 1104.43 1048.79 1213.11 1003.26 1293.86 915.75 1372.15 831.15 1422.18 717.52 1451.22 600.83 1467.49 535.77 1477.92 467.67 1470.63 400.7 1465.81 359.23 1453.92 318.14 1434.51 282.88Z" fill="#deebf7" opacity="1" stroke-width="2" stroke="none"></path></g><g><path d="M881.91 843.43H938.88C970.73 843.43 996.75 817.32 996.75 785.37" stroke="#333333" stroke-width="2" stroke-linecap="round" stroke-linejoin="round" opacity="1" fill="none"></path><path d="M797.57 903.28C797.57 870.2 824.04 843.65 857.01 843.65" stroke="#333333" stroke-width="2" stroke-linecap="round" stroke-linejoin="round" opacity="1" fill="none"></path><path d="M850.95 699.64H367.14C335.51 699.64 309.94 673.98 309.94 642.25 309.94 610.53 335.51 584.87 367.14 584.87H444.52" stroke="#333333" stroke-width="2" stroke-linecap="round" stroke-linejoin="round" opacity="1" fill="none"></path><path d="M772.9 585.32H944.04C986.43 585.32 1021.2 550.9 1021.2 507.92 1021.2 465.39 986.88 430.73 944.04 430.73H896.93" stroke="#333333" stroke-width="2" stroke-linecap="round" stroke-linejoin="round" opacity="1" fill="none"></path><path d="M680.71 585.32H751.36" stroke="#333333" stroke-width="2" stroke-linecap="round" stroke-linejoin="round" opacity="1" fill="none"></path><path d="M1055.96 430.96C1088.26 430.96 1114.06 404.63 1114.06 372.45V286.72" stroke="#333333" stroke-width="2" stroke-linecap="round" stroke-linejoin="round" opacity="1" fill="none"></path><path d="M944.26 430.96H1032.64" stroke="#333333" stroke-width="2" stroke-linecap="round" stroke-linejoin="round" opacity="1" fill="none"></path></g><g><path d="M1200.73 424.48H892.94V755.18H1200.73V424.48Z" fill="#abcced" stroke="#333333" stroke-width="2" stroke-linecap="round" stroke-linejoin="round" opacity="1"></path><path d="M1200.73 424.48H892.94V755.18H1200.73V424.48Z" stroke="#333333" stroke-width="2" stroke-linecap="round" stroke-linejoin="round" opacity="1" fill="none"></path></g><g><path d="M725.62 642.79H417.82V973.49H725.62V642.79Z" fill="#abcced" stroke="#333333" stroke-width="2" stroke-linecap="round" stroke-linejoin="round" opacity="1"></path><path d="M725.62 642.79H417.82V973.49H725.62V642.79Z" stroke="#333333" stroke-width="2" stroke-linecap="round" stroke-linejoin="round" opacity="1" fill="none"></path></g><g><path d="M846.55 269.57H538.76V600.27H846.55V269.57Z" fill="#e07896" stroke="#333333" stroke-width="2" stroke-linecap="round" stroke-linejoin="round" opacity="1"></path><path d="M846.55 269.57H538.76V600.27H846.55V269.57Z" stroke="#333333" stroke-width="2" stroke-linecap="round" stroke-linejoin="round" opacity="1" fill="none"></path></g><g><path d="M634.58 367.86H639.35L716.4 367.86C735.89 367.86 751.8 383.64 751.8 403.27V493.7C797.02 493.7 833.49 493.7 846.35 493.7V564.12H751.8V599.92H572.92V542.24C550.64 524.2 536.45 496.75 536.45 465.86 536.45 411.75 580.34 367.86 634.58 367.86Z" fill="#ffffff" stroke="#333333" stroke-width="2" stroke-linecap="round" stroke-linejoin="round" opacity="1"></path><path d="M751.8 564.12H634.58C611.24 564.12 589.76 555.9 572.92 542.37" stroke="#333333" stroke-width="2" stroke-linecap="round" stroke-linejoin="round" opacity="1" fill="none"></path><path d="M719.45 336.17C719.45 336.17 705.79 319.59 689.74 321.58 644.13 327.28 639.62 346.11 639.62 346.11 639.62 346.11 633.65 387.22 659.11 408.17 666.8 411.36 675.29 412.68 684.17 411.49 720.11 407.11 738.94 366.54 719.45 336.17Z" fill="#ffffff" stroke="#333333" stroke-width="2" opacity="1"></path><path d="M651.82 344.66L679 341.21C686.16 340.28 691.2 333.78 690.27 326.75 691.2 333.91 697.7 338.95 704.73 338.02L719.45 336.17C697.17 301.29 644.26 307.92 631.26 347.17 628.88 354.34 628.08 362.03 629.41 370.25L630.6 380.06C616.68 381.79 606.73 394.52 608.45 408.57 610.18 422.5 622.91 432.44 636.96 430.72 651.02 428.99 660.83 416 659.11 402.21 653.28 356.19 661.36 420.24 651.82 344.66Z" fill="#465d6d" stroke="#333333" stroke-width="2" stroke-linecap="round" stroke-linejoin="round" opacity="1"></path><path d="M703.67 362.42L704.73 371.84" stroke="#333333" stroke-width="2" stroke-linecap="round" opacity="1" fill="none"></path><path d="M691.6 373.43C692 377.01 695.31 379.66 699.02 379.13 702.61 378.74 705.26 375.42 704.73 371.71" stroke="#333333" stroke-width="2" stroke-linecap="round" opacity="1" fill="none"></path><path d="M653.94 455.78C653.94 476.73 636.96 493.7 616.01 493.7 616.01 493.7 698.63 493.7 751.93 493.7" stroke="#333333" stroke-width="2" stroke-linecap="round" stroke-linejoin="round" opacity="1" fill="none"></path></g><g><path d="M973.6 498.68V552.09 626.15H961.13 894.08V706.45H966.58 972.82V755.57H1149.4V581.32C1149.4 535.72 1112.76 498.68 1067.15 498.68H1013.36 973.6Z" fill="#ffffff" stroke="#333333" stroke-width="2" stroke-linecap="round" stroke-linejoin="round" opacity="1"></path><path d="M1041.04 464.77C996.6 445.28 960.35 478.8 960.35 478.8 955.67 486.99 952.55 497.13 952.55 507.26 952.55 539.22 978.28 564.95 1010.63 564.95 1041.04 564.95 1065.59 542.34 1067.93 512.33 1067.93 490.5 1060.14 473.74 1041.04 464.77Z" fill="#ffffff" stroke="#333333" stroke-width="2" stroke-linecap="round" stroke-linejoin="round" opacity="1"></path><path d="M1060.92 478.8C1055.85 470.23 1048.83 462.43 1039.48 456.98 1030.9 452.3 1021.16 449.57 1010.63 449.57 989.19 449.57 970.48 461.26 960.35 478.8H1039.09V483.48C1039.09 499.46 1051.95 512.33 1067.93 512.33 1067.93 510.38 1067.93 508.82 1067.93 506.87 1068.32 497.13 1065.59 486.99 1060.92 478.8Z" fill="#465d6d" stroke="#333333" stroke-width="2" stroke-linecap="round" stroke-linejoin="round" opacity="1"></path><path d="M973.99 495.84V514.94" stroke="#333333" stroke-width="2" stroke-linecap="round" opacity="1" fill="none"></path><path d="M991.14 515.06C991.14 519.73 986.85 523.63 982.56 523.63 977.89 523.63 973.99 519.73 973.99 515.06" stroke="#333333" stroke-width="2" stroke-linecap="round" opacity="1" fill="none"></path><path d="M1080.02 601.98V656.17C1080.02 684.23 1057.02 706.45 1029.73 706.45H973.6" stroke="#333333" stroke-width="2" stroke-linecap="round" opacity="1" fill="none"></path><path d="M989.97 598.86C989.97 614.07 1002.44 626.15 1017.65 626.15H973.99" stroke="#333333" stroke-width="2" stroke-linecap="round" stroke-linejoin="round" opacity="1" fill="none"></path></g><g><path d="M836.33 665.72C851.26 652.86 870.48 645.02 891.77 645.02 938.63 645.02 976.47 683.01 976.47 729.72 976.47 776.44 938.48 814.43 891.77 814.43 845.05 814.43 807.06 776.44 807.06 729.72 807.06 707.99 815.19 688.48 828.5 673.4" fill="#3d7ea8" opacity="1" stroke-width="2" stroke="none"></path><path d="M836.33 665.72C851.26 652.86 870.48 645.02 891.77 645.02 938.63 645.02 976.47 683.01 976.47 729.72 976.47 776.44 938.48 814.43 891.77 814.43 845.05 814.43 807.06 776.44 807.06 729.72 807.06 707.99 815.19 688.48 828.5 673.4" stroke="#333333" stroke-width="2" stroke-linecap="round" stroke-linejoin="round" opacity="1" fill="none"></path><path d="M930.5 721.59L964.94 687.15C958.29 675.77 949.12 666.16 938.33 659.06L903.15 694.25 930.5 721.59Z" fill="#abcced" stroke="#333333" stroke-width="2" stroke-linecap="round" stroke-linejoin="round" opacity="1"></path><path d="M890.44 734.31L930.5 721.59 903 694.39 890.44 734.31Z" fill="#e07896" stroke="#333333" stroke-width="2" stroke-linecap="round" stroke-linejoin="round" opacity="1"></path><path d="M843.13 778.21H822.73" stroke="#333333" stroke-width="2" stroke-linecap="round" stroke-linejoin="round" opacity="1" fill="none"></path><path d="M870.48 778.21H851.56" stroke="#333333" stroke-width="2" stroke-linecap="round" stroke-linejoin="round" opacity="1" fill="none"></path><path d="M877.13 734.31H867.08C860.58 734.31 855.55 739.48 855.55 745.84 855.55 752.19 860.72 757.37 867.08 757.37H930.94C936.71 757.37 941.44 761.95 941.44 767.72 941.44 773.48 936.85 778.06 930.94 778.06H878.17" stroke="#333333" stroke-width="2" stroke-linecap="round" stroke-linejoin="round" opacity="1" fill="none"></path><path d="M882.9 734.31H890.44" stroke="#333333" stroke-width="2" stroke-linecap="round" stroke-linejoin="round" opacity="1" fill="none"></path></g><g><path d="M1066.47 361.41L1097.52 374.8 1109.21 359.13C1113.19 359.41 1116.9 359.41 1120.6 359.41L1131.71 375.37 1163.34 362.83 1160.49 343.46C1163.34 341.18 1166.19 338.33 1168.75 335.48L1187.84 338.9 1201.23 307.84 1185.56 296.16C1185.56 296.16 1185.85 288.47 1185.85 284.77L1201.8 273.66 1189.27 242.03 1169.89 244.88C1169.89 244.88 1164.76 239.18 1161.91 236.62L1165.33 217.53 1134.28 204.14 1122.6 219.81C1118.61 219.52 1114.9 219.52 1111.2 219.52L1100.09 203.57 1068.46 216.1 1071.31 235.48C1068.46 237.76 1063.05 243.45 1063.05 243.45L1043.96 240.04 1030.57 271.09 1046.24 282.77C1045.96 286.76 1045.96 290.46 1045.96 294.17L1030 305.28 1042.54 336.91 1061.91 334.06C1061.91 334.06 1067.04 339.75 1069.89 342.32L1066.47 361.41Z" fill="#3d7ea8" stroke="#333333" stroke-width="2" stroke-linecap="round" stroke-linejoin="round" opacity="1"></path><path d="M1116.33 331.78C1139.92 331.78 1159.06 312.63 1159.06 289.04 1159.06 265.45 1139.92 246.3 1116.33 246.3 1092.74 246.3 1073.59 265.45 1073.59 289.04 1073.59 312.63 1092.74 331.78 1116.33 331.78Z" fill="#abcced" opacity="1" stroke-width="2" stroke="none"></path><path d="M1116.33 331.78C1139.92 331.78 1159.06 312.63 1159.06 289.04 1159.06 265.45 1139.92 246.3 1116.33 246.3 1092.74 246.3 1073.59 265.45 1073.59 289.04 1073.59 312.63 1092.74 331.78 1116.33 331.78Z" stroke="#333333" stroke-width="2" stroke-linecap="round" stroke-linejoin="round" opacity="1" fill="none"></path></g><g><path d="M537.96 772.67H638.92 653.04 697.72L688.24 688.34C685.15 661.26 706.23 637.66 733.5 637.66H742.59L758.84 785.04C761.55 810.57 741.62 832.82 715.9 832.82H653.04V890.45C666.58 901.48 675.28 918.31 675.28 937.26H653.04V973.82L489.03 973.82 489.03 821.79C489.03 794.52 511.08 772.67 537.96 772.67Z" fill="#ffffff" stroke="#333333" stroke-width="2" stroke-linecap="round" stroke-linejoin="round" opacity="1"></path><path d="M653.04 832.82V815.99" stroke="#333333" stroke-width="2" stroke-linecap="round" stroke-linejoin="round" opacity="1" fill="none"></path><path d="M637.76 761.45H642.21C648.98 761.45 654.59 755.84 654.59 749.07V720.83C654.59 714.06 648.98 708.45 642.21 708.45H637.76C633.51 708.45 630.02 711.93 630.02 716.19V753.71C629.83 757.97 633.31 761.45 637.76 761.45Z" fill="#465d6d" stroke="#333333" stroke-width="2" stroke-linecap="round" stroke-linejoin="round" opacity="1"></path><path d="M638.34 708.45C638.34 708.45 599.85 674.8 558.08 701.1 549.37 706.52 531.19 724.31 537.57 753.52 545.89 773.44 565.62 787.56 588.44 787.56 613 787.56 633.7 771.51 640.86 749.46 642.6 744.04 643.56 738.24 643.56 732.44 643.76 723.73 641.82 715.61 638.34 708.45Z" fill="#ffffff" stroke="#333333" stroke-width="2" stroke-linecap="round" stroke-linejoin="round" opacity="1"></path><path d="M613.39 740.17V745.59" stroke="#333333" stroke-width="2" stroke-linecap="round" stroke-linejoin="round" opacity="1" fill="none"></path><path d="M598.5 745.59C598.5 749.65 601.79 752.94 605.85 752.94 609.91 752.94 613.2 749.65 613.2 745.59" stroke="#333333" stroke-width="2" stroke-linecap="round" stroke-linejoin="round" opacity="1" fill="none"></path><path d="M588.63 676.93C566.59 676.93 547.63 689.69 538.73 708.45 535.25 715.61 533.32 723.73 533.32 732.24 533.32 738.24 534.29 744.04 536.03 749.26 536.41 750.62 536.99 751.97 537.57 753.32 550.92 753.32 561.94 742.49 561.94 728.95V708.45H638.34C629.44 689.89 610.49 676.93 588.63 676.93Z" fill="#465d6d" stroke="#333333" stroke-width="2" stroke-linecap="round" stroke-linejoin="round" opacity="1"></path><path d="M539.12 761.45H534.67C527.9 761.45 522.29 755.84 522.29 749.07V720.83C522.29 714.06 527.9 708.45 534.67 708.45H539.12C543.38 708.45 546.86 711.93 546.86 716.19L546.86 753.71C547.05 757.97 543.57 761.45 539.12 761.45Z" fill="#465d6d" stroke="#333333" stroke-width="2" stroke-linecap="round" stroke-linejoin="round" opacity="1"></path><path d="M534.67 708.45V696.27C534.67 678.47 549.18 663.97 566.97 663.97H609.72C627.51 663.97 642.02 678.47 642.02 696.27V708.45" stroke="#333333" stroke-width="2" stroke-linecap="round" stroke-linejoin="round" opacity="1" fill="none"></path><path d="M653.04 937.07L524.23 937.07C504.89 937.07 489.22 921.4 489.22 902.06" stroke="#333333" stroke-width="2" stroke-linecap="round" stroke-linejoin="round" opacity="1" fill="none"></path><path d="M653.04 890.45C642.79 882.14 629.64 877.11 615.33 877.11H541.25C555.95 877.11 567.94 865.12 567.94 850.42" stroke="#333333" stroke-width="2" stroke-linecap="round" stroke-linejoin="round" opacity="1" fill="none"></path></g><g><path d="M416.65 618.83C463.6 618.83 501.65 580.77 501.65 533.83 501.65 486.89 463.6 448.83 416.65 448.83 369.71 448.83 331.65 486.89 331.65 533.83 331.65 580.77 369.71 618.83 416.65 618.83Z" fill="#3d7ea8" stroke="#333333" stroke-width="2" stroke-linecap="round" stroke-linejoin="round" opacity="1"></path><path d="M393.06 553.95L372.94 533.83 393.06 513.7" stroke="#333333" stroke-width="2" stroke-linecap="round" stroke-linejoin="round" opacity="1" fill="none"></path><path d="M440.07 513.7L460.37 533.83 440.07 553.95" stroke="#333333" stroke-width="2" stroke-linecap="round" stroke-linejoin="round" opacity="1" fill="none"></path><path d="M425.85 513.7L407.81 553.95" stroke="#333333" stroke-width="2" stroke-linecap="round" stroke-linejoin="round" opacity="1" fill="none"></path></g><g><path d="M1090.12 1018.56H876.68L938.1 870.83H1151.54L1090.12 1018.56Z" fill="#465d6d" opacity="1" stroke-width="2" stroke="none"></path><path d="M1108.34 974.86L1090.12 1018.56H1042.83" stroke="#333333" stroke-width="2" stroke-linecap="round" stroke-linejoin="round" opacity="1" fill="none"></path><path d="M1034.27 1018.56H1024.02" stroke="#333333" stroke-width="2" stroke-linecap="round" stroke-linejoin="round" opacity="1" fill="none"></path><path d="M1024.02 1018.56H923.96" stroke="#333333" stroke-width="2" stroke-linecap="round" stroke-linejoin="round" opacity="1" fill="none"></path><path d="M923.96 1018.56H876.68L894.79 974.86" stroke="#333333" stroke-width="2" stroke-linecap="round" stroke-linejoin="round" opacity="1" fill="none"></path><path d="M906.24 947.48L919.88 914.53" stroke="#333333" stroke-width="2" stroke-linecap="round" stroke-linejoin="round" opacity="1" fill="none"></path><path d="M919.88 914.53L938.1 870.83H985.39" stroke="#333333" stroke-width="2" stroke-linecap="round" stroke-linejoin="round" opacity="1" fill="none"></path><path d="M993.95 870.83H1004.2" stroke="#333333" stroke-width="2" stroke-linecap="round" stroke-linejoin="round" opacity="1" fill="none"></path><path d="M1004.2 870.83H1104.26" stroke="#333333" stroke-width="2" stroke-linecap="round" stroke-linejoin="round" opacity="1" fill="none"></path><path d="M1104.26 870.83H1151.54L1133.42 914.53" stroke="#333333" stroke-width="2" stroke-linecap="round" stroke-linejoin="round" opacity="1" fill="none"></path><path d="M1121.98 941.91L1108.34 974.86" stroke="#333333" stroke-width="2" stroke-linecap="round" stroke-linejoin="round" opacity="1" fill="none"></path><path d="M1016.45 952.36C1023.77 952.36 1029.69 946.43 1029.69 939.12 1029.69 931.8 1023.77 925.88 1016.45 925.88 1009.14 925.88 1003.21 931.8 1003.21 939.12 1003.21 946.43 1009.14 952.36 1016.45 952.36Z" fill="#e07896" stroke="#333333" stroke-width="2" stroke-linecap="round" stroke-linejoin="round" opacity="1"></path><path d="M805.69 1026.63H1094.8V1007.41H824.91C814.26 1007.41 805.69 1016.07 805.69 1026.63Z" fill="#465d6d" stroke="#333333" stroke-width="2" stroke-linecap="round" stroke-linejoin="round" opacity="1"></path></g></svg>